<svg width="271" height="288" viewBox="0 0 271 288" fill="none" xmlns="http://www.w3.org/2000/svg">
<path d="M266.256 9.32185C280.278 9.32185 238.836 2.53888 224.823 2.06038C185.766 0.726737 145.532 8.87428 110.134 25.4466C80.9693 39.1012 42.1757 66.8789 60.2652 105.109C68.1124 121.693 82.2526 130.04 100.524 127.641C115.011 125.739 125.26 116.356 124.764 101.372C124.164 83.2543 104.462 74.3716 89.2043 73.8208C71.7006 73.1889 53.2061 82.2676 39.2283 91.9745C17.1841 107.283 4.02001 132.169 1.85304 158.823C-1.29139 197.499 23.0475 236.849 60.3719 248.95C76.4462 254.162 106.677 259.242 120.172 245.747" stroke="white" stroke-width="3" stroke-linecap="round"/>
<path d="M77.8849 220.759C72.469 214.666 85.1714 223.773 86.4279 224.603C99.7824 233.431 114.381 239.075 128.395 246.494C133.067 248.968 125.291 250.13 121.881 252.795C110.418 261.75 102.453 272.746 97.1065 286.112" stroke="white" stroke-width="3" stroke-linecap="round"/>
<path d="M79.6613 222.874C79.588 222.215 78.9164 221.554 78.9164 220.965C78.9164 215.233 81.7293 232.08 83.1532 237.633C86.164 249.375 89.0219 261.172 92.5113 272.784C93.2189 275.139 96.345 284.632 93.9081 276.509" stroke="white" stroke-width="3" stroke-linecap="round"/>
<path d="M88.0417 225.388C89.4476 225.212 88.8798 256.37 88.8798 261.424" stroke="white" stroke-width="3" stroke-linecap="round"/>
<path d="M102.288 233.769C100.42 248.716 99.6353 265.007 95.5841 279.861" stroke="white" stroke-width="3" stroke-linecap="round"/>
<path d="M109.831 237.121C109.831 246.906 109.319 256.675 108.993 266.452" stroke="white" stroke-width="3" stroke-linecap="round"/>
</svg>
