<svg width="62" height="80" viewBox="0 0 62 80" fill="none" xmlns="http://www.w3.org/2000/svg">
<path d="M52.3691 37.7149C53.0262 37.7149 46.7905 33.9494 45.8703 33.2141C39.7166 28.2966 33.6525 23.1168 27.4572 18.3268C21.3826 13.63 10.0377 1.07189 2.76199 2.05455C0.719825 2.33037 3.27751 8.98071 4.65746 11.4024C9.53303 19.9587 16.1054 24.6149 22.6373 29.0595C25.1661 30.7802 38.941 36.6634 37.7469 42.3889" stroke="white" stroke-width="3" stroke-linecap="round"/>
<path d="M21.1751 31.483C21.1751 22.708 19.8041 31.3903 21.1751 36.5032C24.0423 47.1955 30.165 52.5837 36.718 56.3241C38.4412 57.3077 46.5202 62.4575 46.5202 61.0846" stroke="white" stroke-width="3" stroke-linecap="round"/>
<path d="M34.8224 53.2947C35.7796 53.2947 34.8473 54.1977 34.335 54.8527C32.75 56.8793 33.3265 61.0687 34.2809 63.335C39.0616 74.6869 66.7798 78.2223 58.2179 78.2223" stroke="white" stroke-width="3" stroke-linecap="round"/>
<path d="M54.3187 43.947C56.9969 40.6178 58.0057 58.7206 58.2179 60.3924C58.3621 61.5282 61.4583 81.2956 60.1675 75.1066" stroke="white" stroke-width="3" stroke-linecap="round"/>
</svg>
