<svg width="202" height="23" viewBox="0 0 202 23" fill="none" xmlns="http://www.w3.org/2000/svg">
<rect x="10.1816" y="22.2981" width="23.9563" height="1.57231" transform="rotate(-68.5571 10.1816 22.2981)" fill="white"/>
<path d="M0.014267 11.9923L7.44254 4.56403C7.74956 4.25702 8.24732 4.25702 8.55434 4.56403V4.56403C8.86135 4.87104 8.86135 5.36881 8.55433 5.67582L1.12606 13.1041L0.014267 11.9923Z" fill="white"/>
<path d="M47.9545 12.1254L40.5262 4.6971C40.2192 4.39009 39.7214 4.39009 39.4144 4.6971V4.6971C39.1074 5.00412 39.1074 5.50188 39.4144 5.8089L46.8427 13.2372L47.9545 12.1254Z" fill="white"/>
<path d="M1.11179 10.8797L8.54006 18.3079C8.84708 18.615 8.84708 19.1127 8.54006 19.4197V19.4197C8.23305 19.7268 7.73528 19.7267 7.42827 19.4197L-4.96623e-06 11.9915L1.11179 10.8797Z" fill="white"/>
<path d="M46.857 11.0128L39.4287 18.441C39.1217 18.748 39.1217 19.2458 39.4287 19.5528V19.5528C39.7357 19.8598 40.2335 19.8598 40.5405 19.5528L47.9688 12.1245L46.857 11.0128Z" fill="white"/>
<path d="M29.5086 5.29641L29.6122 5.27724L29.6728 5.19095C30.1591 4.49792 30.3726 3.91793 30.3701 3.4545C30.3676 2.97264 30.1287 2.62877 29.7697 2.47272C29.2838 2.26153 28.6471 2.41685 28.2247 2.87104C28.1502 2.69445 28.0458 2.5471 27.9174 2.43104C27.6402 2.18055 27.2788 2.10233 26.951 2.16757C26.6234 2.23276 26.3202 2.44302 26.1607 2.77732C26.0983 2.90814 26.0603 3.05259 26.0494 3.20805C25.8366 3.0901 25.614 3.03257 25.3948 3.03051C24.96 3.02641 24.5675 3.24258 24.3428 3.57793C24.1137 3.91988 24.066 4.37551 24.3019 4.81865C24.5331 5.25293 25.0205 5.64857 25.8084 5.94343L25.8754 5.96849L25.9457 5.95548L29.5086 5.29641Z" stroke="#BB3A3A" stroke-width="0.515793"/>
<path fill-rule="evenodd" clip-rule="evenodd" d="M35.4331 9.0266H20.7208V21.212H35.4331V9.0266ZM30.4318 9.54217H25.7896V20.6317H30.4318V9.54217Z" fill="#BB3A3A"/>
<path fill-rule="evenodd" clip-rule="evenodd" d="M34.8508 4.09712L20.3839 6.77327L20.6903 8.42978L35.1572 5.75364L34.8508 4.09712ZM30.0069 5.49916L25.4239 6.34692L25.5471 7.01284L30.1301 6.16508L30.0069 5.49916Z" fill="#BB3A3A"/>
<path d="M61.664 19V7.064H61.68L67.744 15.672L67.088 15.544L73.136 7.064H73.168V19H71.632V10.584L71.728 11.368L67.36 17.544H67.328L62.896 11.368L63.168 10.648V19H61.664ZM78.8761 19.16C78.2575 19.16 77.6921 19.0267 77.1801 18.76C76.6788 18.4933 76.2788 18.104 75.9801 17.592C75.6921 17.0693 75.5481 16.4347 75.5481 15.688C75.5481 14.952 75.7028 14.3173 76.0121 13.784C76.3215 13.24 76.7321 12.824 77.2441 12.536C77.7668 12.248 78.3375 12.104 78.9561 12.104C79.5748 12.104 80.0975 12.248 80.5241 12.536C80.9508 12.8133 81.2761 13.144 81.5001 13.528L81.4041 13.784L81.5481 12.376H82.9241V19H81.4361V17.272L81.5961 17.656C81.5535 17.7627 81.4575 17.9013 81.3081 18.072C81.1695 18.232 80.9775 18.3973 80.7321 18.568C80.4975 18.7387 80.2255 18.8827 79.9161 19C79.6068 19.1067 79.2601 19.16 78.8761 19.16ZM79.2761 17.928C79.6495 17.928 79.9855 17.8587 80.2841 17.72C80.5828 17.5813 80.8281 17.3893 81.0201 17.144C81.2228 16.888 81.3615 16.584 81.4361 16.232V14.936C81.3508 14.616 81.2015 14.3387 80.9881 14.104C80.7748 13.8587 80.5188 13.672 80.2201 13.544C79.9215 13.4053 79.5908 13.336 79.2281 13.336C78.8335 13.336 78.4708 13.432 78.1401 13.624C77.8095 13.816 77.5428 14.0827 77.3401 14.424C77.1481 14.7653 77.0521 15.1653 77.0521 15.624C77.0521 16.0507 77.1535 16.44 77.3561 16.792C77.5588 17.144 77.8308 17.4213 78.1721 17.624C78.5135 17.8267 78.8815 17.928 79.2761 17.928ZM88.1871 19.16C87.5791 19.16 87.0245 19.016 86.5231 18.728C86.0325 18.4293 85.6431 18.0133 85.3551 17.48C85.0671 16.936 84.9231 16.312 84.9231 15.608C84.9231 14.872 85.0725 14.2427 85.3711 13.72C85.6805 13.1973 86.0965 12.7973 86.6191 12.52C87.1418 12.2427 87.7285 12.104 88.3791 12.104C88.9018 12.104 89.3978 12.216 89.8671 12.44C90.3471 12.664 90.7205 12.9733 90.9871 13.368L90.9231 13.896V6.616H92.3951V19H90.9071V17.352L91.0671 17.768C90.7578 18.1733 90.3578 18.5093 89.8671 18.776C89.3765 19.032 88.8165 19.16 88.1871 19.16ZM88.6511 17.896C89.0458 17.896 89.3978 17.8267 89.7071 17.688C90.0165 17.5387 90.2725 17.336 90.4751 17.08C90.6778 16.824 90.8218 16.52 90.9071 16.168V14.92C90.8218 14.6 90.6671 14.3227 90.4431 14.088C90.2298 13.8427 89.9685 13.6507 89.6591 13.512C89.3605 13.3627 89.0245 13.288 88.6511 13.288C88.2458 13.288 87.8725 13.3893 87.5311 13.592C87.2005 13.784 86.9338 14.0507 86.7311 14.392C86.5285 14.7333 86.4271 15.128 86.4271 15.576C86.4271 16.0133 86.5285 16.408 86.7311 16.76C86.9338 17.1013 87.2058 17.3787 87.5471 17.592C87.8885 17.7947 88.2565 17.896 88.6511 17.896ZM98.0555 19.16C97.2982 19.16 96.6475 19.0107 96.1035 18.712C95.5595 18.4027 95.1382 17.9867 94.8395 17.464C94.5515 16.9307 94.4075 16.3227 94.4075 15.64C94.4075 14.9893 94.5728 14.3973 94.9035 13.864C95.2342 13.3307 95.6768 12.904 96.2315 12.584C96.7862 12.264 97.4048 12.104 98.0875 12.104C98.9622 12.104 99.6875 12.36 100.264 12.872C100.84 13.384 101.229 14.088 101.432 14.984L95.9755 16.904L95.6235 16.024L100.104 14.392L99.7835 14.6C99.6555 14.248 99.4422 13.944 99.1435 13.688C98.8448 13.4213 98.4555 13.288 97.9755 13.288C97.5702 13.288 97.2075 13.3893 96.8875 13.592C96.5675 13.784 96.3168 14.0507 96.1355 14.392C95.9542 14.7333 95.8635 15.1227 95.8635 15.56C95.8635 16.0187 95.9595 16.424 96.1515 16.776C96.3435 17.1173 96.6048 17.3893 96.9355 17.592C97.2768 17.784 97.6608 17.88 98.0875 17.88C98.3755 17.88 98.6528 17.8267 98.9195 17.72C99.1968 17.6133 99.4528 17.4747 99.6875 17.304L100.376 18.408C100.045 18.632 99.6715 18.8133 99.2555 18.952C98.8502 19.0907 98.4502 19.16 98.0555 19.16ZM112.391 19.16C111.783 19.16 111.244 19.0267 110.775 18.76C110.316 18.4933 109.948 18.1573 109.671 17.752L109.847 17.288V19H108.359V6.616H109.831V13.896L109.783 13.336C110.049 12.9733 110.428 12.68 110.919 12.456C111.42 12.2213 111.975 12.104 112.583 12.104C113.18 12.104 113.724 12.248 114.215 12.536C114.705 12.824 115.095 13.2293 115.383 13.752C115.681 14.264 115.831 14.8773 115.831 15.592C115.831 16.3387 115.671 16.9787 115.351 17.512C115.041 18.0453 114.625 18.456 114.103 18.744C113.58 19.0213 113.009 19.16 112.391 19.16ZM112.087 17.896C112.513 17.896 112.897 17.7947 113.239 17.592C113.58 17.3893 113.847 17.1173 114.039 16.776C114.231 16.424 114.327 16.024 114.327 15.576C114.327 15.1493 114.225 14.7653 114.023 14.424C113.831 14.072 113.564 13.7947 113.223 13.592C112.892 13.3893 112.513 13.288 112.087 13.288C111.724 13.288 111.388 13.3573 111.079 13.496C110.769 13.6347 110.508 13.8267 110.295 14.072C110.081 14.3067 109.932 14.584 109.847 14.904V16.232C109.932 16.552 110.076 16.84 110.279 17.096C110.481 17.3413 110.737 17.5387 111.047 17.688C111.356 17.8267 111.703 17.896 112.087 17.896ZM118.403 22.184L122.771 12.376H124.147L119.875 22.184H118.403ZM120.035 19.048L116.851 12.376H118.531L121.203 18.296L120.035 19.048ZM130.172 7.496H131.964L135.1 16.328L134.828 16.216L137.116 10.296L137.836 12.392L134.78 19.528L130.172 7.496ZM135.724 7.496H137.276L140.668 16.2L140.348 16.136L143.34 7.496H144.988L140.444 19.512L135.724 7.496ZM148.524 19.16C147.767 19.16 147.116 19.0107 146.572 18.712C146.028 18.4027 145.607 17.9867 145.308 17.464C145.02 16.9307 144.876 16.3227 144.876 15.64C144.876 14.9893 145.042 14.3973 145.372 13.864C145.703 13.3307 146.146 12.904 146.7 12.584C147.255 12.264 147.874 12.104 148.556 12.104C149.431 12.104 150.156 12.36 150.732 12.872C151.308 13.384 151.698 14.088 151.9 14.984L146.444 16.904L146.092 16.024L150.572 14.392L150.252 14.6C150.124 14.248 149.911 13.944 149.612 13.688C149.314 13.4213 148.924 13.288 148.444 13.288C148.039 13.288 147.676 13.3893 147.356 13.592C147.036 13.784 146.786 14.0507 146.604 14.392C146.423 14.7333 146.332 15.1227 146.332 15.56C146.332 16.0187 146.428 16.424 146.62 16.776C146.812 17.1173 147.074 17.3893 147.404 17.592C147.746 17.784 148.13 17.88 148.556 17.88C148.844 17.88 149.122 17.8267 149.388 17.72C149.666 17.6133 149.922 17.4747 150.156 17.304L150.844 18.408C150.514 18.632 150.14 18.8133 149.724 18.952C149.319 19.0907 148.919 19.16 148.524 19.16ZM157.797 19.16C157.189 19.16 156.65 19.0267 156.181 18.76C155.722 18.4933 155.354 18.1573 155.077 17.752L155.253 17.288V19H153.765V6.616H155.237V13.896L155.189 13.336C155.455 12.9733 155.834 12.68 156.325 12.456C156.826 12.2213 157.381 12.104 157.989 12.104C158.586 12.104 159.13 12.248 159.621 12.536C160.111 12.824 160.501 13.2293 160.789 13.752C161.087 14.264 161.237 14.8773 161.237 15.592C161.237 16.3387 161.077 16.9787 160.757 17.512C160.447 18.0453 160.031 18.456 159.509 18.744C158.986 19.0213 158.415 19.16 157.797 19.16ZM157.493 17.896C157.919 17.896 158.303 17.7947 158.645 17.592C158.986 17.3893 159.253 17.1173 159.445 16.776C159.637 16.424 159.733 16.024 159.733 15.576C159.733 15.1493 159.631 14.7653 159.429 14.424C159.237 14.072 158.97 13.7947 158.629 13.592C158.298 13.3893 157.919 13.288 157.493 13.288C157.13 13.288 156.794 13.3573 156.485 13.496C156.175 13.6347 155.914 13.8267 155.701 14.072C155.487 14.3067 155.338 14.584 155.253 14.904V16.232C155.338 16.552 155.482 16.84 155.685 17.096C155.887 17.3413 156.143 17.5387 156.453 17.688C156.762 17.8267 157.109 17.896 157.493 17.896ZM166.433 22.28C165.942 22.28 165.51 22.2213 165.137 22.104C164.764 21.9973 164.422 21.8427 164.113 21.64C163.814 21.4373 163.526 21.208 163.249 20.952L164.113 19.944C164.465 20.2747 164.822 20.5307 165.185 20.712C165.548 20.8933 165.953 20.984 166.401 20.984C166.902 20.984 167.324 20.8987 167.665 20.728C168.017 20.568 168.284 20.3387 168.465 20.04C168.646 19.752 168.737 19.416 168.737 19.032L168.753 17.24L168.881 17.528C168.689 17.9867 168.342 18.376 167.841 18.696C167.34 19.0053 166.732 19.16 166.017 19.16C165.409 19.16 164.849 19.0053 164.337 18.696C163.836 18.3867 163.43 17.9707 163.121 17.448C162.822 16.9147 162.673 16.3173 162.673 15.656C162.673 14.9627 162.833 14.3547 163.153 13.832C163.473 13.2987 163.894 12.8773 164.417 12.568C164.94 12.2587 165.51 12.104 166.129 12.104C166.716 12.104 167.249 12.2267 167.729 12.472C168.22 12.7067 168.577 13.0107 168.801 13.384L168.721 13.656L168.881 12.376H170.241V19.048C170.241 19.6453 170.086 20.1893 169.777 20.68C169.468 21.1707 169.03 21.56 168.465 21.848C167.9 22.136 167.222 22.28 166.433 22.28ZM164.161 15.624C164.161 16.0507 164.262 16.44 164.465 16.792C164.668 17.144 164.94 17.4213 165.281 17.624C165.633 17.8267 166.022 17.928 166.449 17.928C166.844 17.928 167.196 17.8587 167.505 17.72C167.825 17.5707 168.092 17.3733 168.305 17.128C168.518 16.872 168.668 16.5787 168.753 16.248V14.936C168.657 14.616 168.497 14.3387 168.273 14.104C168.049 13.8587 167.782 13.672 167.473 13.544C167.164 13.4053 166.822 13.336 166.449 13.336C166.022 13.336 165.633 13.432 165.281 13.624C164.94 13.816 164.668 14.088 164.465 14.44C164.262 14.7813 164.161 15.176 164.161 15.624ZM172.812 12.376H174.3V19H172.812V12.376ZM172.7 9.976C172.7 9.74133 172.79 9.544 172.972 9.384C173.164 9.224 173.372 9.144 173.596 9.144C173.82 9.144 174.017 9.224 174.188 9.384C174.369 9.544 174.46 9.74133 174.46 9.976C174.46 10.2213 174.369 10.424 174.188 10.584C174.017 10.7333 173.82 10.808 173.596 10.808C173.372 10.808 173.164 10.728 172.972 10.568C172.79 10.408 172.7 10.2107 172.7 9.976ZM177.418 19V13.704H176.282V12.376H177.418V9.576C177.418 8.616 177.631 7.88 178.058 7.368C178.495 6.856 179.135 6.6 179.978 6.6C180.202 6.6 180.447 6.632 180.714 6.696C180.991 6.76 181.231 6.86667 181.434 7.016L180.81 8.088C180.714 7.992 180.607 7.928 180.49 7.896C180.373 7.85333 180.255 7.832 180.138 7.832C179.743 7.832 179.439 7.96533 179.226 8.232C179.013 8.49867 178.906 8.952 178.906 9.592V12.376H181.002V13.704H178.906V19H177.418ZM183.577 9.464H185.065V12.408H186.889V13.576H185.065V19H183.577V13.576H182.361V12.408H183.577V9.464ZM191.759 19.16C191.001 19.16 190.351 19.0107 189.807 18.712C189.263 18.4027 188.841 17.9867 188.543 17.464C188.255 16.9307 188.111 16.3227 188.111 15.64C188.111 14.9893 188.276 14.3973 188.607 13.864C188.937 13.3307 189.38 12.904 189.935 12.584C190.489 12.264 191.108 12.104 191.791 12.104C192.665 12.104 193.391 12.36 193.967 12.872C194.543 13.384 194.932 14.088 195.135 14.984L189.679 16.904L189.327 16.024L193.807 14.392L193.487 14.6C193.359 14.248 193.145 13.944 192.847 13.688C192.548 13.4213 192.159 13.288 191.679 13.288C191.273 13.288 190.911 13.3893 190.591 13.592C190.271 13.784 190.02 14.0507 189.839 14.392C189.657 14.7333 189.567 15.1227 189.567 15.56C189.567 16.0187 189.663 16.424 189.855 16.776C190.047 17.1173 190.308 17.3893 190.639 17.592C190.98 17.784 191.364 17.88 191.791 17.88C192.079 17.88 192.356 17.8267 192.623 17.72C192.9 17.6133 193.156 17.4747 193.391 17.304L194.079 18.408C193.748 18.632 193.375 18.8133 192.959 18.952C192.553 19.0907 192.153 19.16 191.759 19.16ZM198.327 12.376L198.471 14.296L198.391 14.04C198.562 13.6347 198.807 13.2933 199.127 13.016C199.458 12.728 199.799 12.5093 200.151 12.36C200.514 12.2 200.828 12.12 201.095 12.12L201.015 13.592C200.514 13.56 200.071 13.656 199.687 13.88C199.314 14.104 199.015 14.4027 198.791 14.776C198.578 15.1493 198.471 15.5493 198.471 15.976V19H196.999V12.376H198.327Z" fill="white"/>
</svg>
